<?xml version="1.0" standalone="no"?>
<!DOCTYPE svg PUBLIC "-//W3C//DTD SVG 20010904//EN"
 "http://www.w3.org/TR/2001/REC-SVG-20010904/DTD/svg10.dtd">
<svg version="1.0" xmlns="http://www.w3.org/2000/svg"
 width="512.000000pt" height="512.000000pt" viewBox="0 0 512.000000 512.000000"
 preserveAspectRatio="xMidYMid meet">
<metadata>
Created by potrace 1.11, written by Peter Selinger 2001-2013
</metadata>
<g transform="translate(0.000000,512.000000) scale(0.100000,-0.100000)"
fill="#000000" stroke="none">
<path d="M2560 2560 l0 -2560 1280 0 1280 0 0 2560 0 2560 -1280 0 -1280 0 0
-2560z"/>
<path d="M1295 3730 c-340 -54 -601 -246 -703 -518 -34 -91 -42 -257 -17 -366
23 -107 84 -224 157 -302 113 -120 214 -178 428 -244 333 -102 390 -122 468
-160 108 -52 191 -132 218 -210 24 -69 24 -195 0 -260 -61 -167 -224 -270
-425 -270 -194 1 -507 109 -606 210 -28 29 -56 83 -115 222 l-79 183 -72 3
-72 3 6 -93 c4 -51 11 -196 17 -323 16 -329 -6 -285 168 -334 295 -83 534
-117 752 -108 575 24 943 329 944 782 0 193 -55 325 -194 466 -131 133 -239
185 -615 299 -318 97 -424 160 -483 288 -35 74 -42 196 -17 272 23 70 100 151
181 191 54 27 79 33 159 37 219 11 482 -73 551 -176 12 -18 51 -104 86 -192
l63 -160 73 0 72 0 -2 327 -3 327 -60 18 c-85 25 -242 57 -365 74 -132 18
-435 26 -515 14z"/>
</g>
</svg>
